<?xml version="1.0" standalone="no"?>
<!DOCTYPE svg PUBLIC "-//W3C//DTD SVG 20010904//EN"
 "http://www.w3.org/TR/2001/REC-SVG-20010904/DTD/svg10.dtd">
<svg version="1.0" xmlns="http://www.w3.org/2000/svg"
 width="300.000000pt" height="301.000000pt" viewBox="0 0 300.000000 301.000000"
 preserveAspectRatio="xMidYMid meet">
<metadata>
Created by potrace 1.10, written by Peter Selinger 2001-2011
</metadata>
<g transform="translate(0.000000,301.000000) scale(0.050000,-0.050000)"
fill="#000000" stroke="none">
<path d="M386 5967 c-114 -40 -257 -171 -322 -295 l-54 -102 0 -2560 0 -2560
56 -114 c63 -128 160 -222 293 -284 l91 -42 2550 0 2550 0 114 56 c128 63 222
160 284 293 l42 91 0 2540 c0 2420 -2 2544 -37 2630 -53 130 -153 243 -276
311 l-107 59 -2550 4 c-2213 3 -2561 -1 -2634 -27z m1452 -656 c86 -44 109
-118 218 -671 215 -1090 519 -2410 775 -3362 51 -191 84 -349 76 -370 -51
-144 -216 -146 -265 -4 -19 52 -302 1295 -302 1322 0 20 -560 34 -840 22
l-311 -14 -126 -642 c-158 -806 -173 -842 -341 -773 -111 46 -110 79 7 545 60
234 181 764 270 1176 89 413 176 813 193 890 17 77 106 499 199 937 171 812
199 903 294 948 62 30 88 30 153 -4z m2869 -20 c422 -76 617 -310 616 -741 -1
-450 -228 -825 -726 -1201 l-199 -149 96 0 c1299 -5 1061 -1770 -308 -2281
-346 -130 -610 -144 -667 -37 -16 29 -20 514 -16 1655 4 887 -1 1825 -11 2084
l-18 471 53 42 c155 122 854 215 1180 157z"/>
<path d="M1703 4668 c-50 -242 -129 -608 -173 -808 -82 -369 -270 -1288 -270
-1321 0 -38 20 -39 511 -39 478 0 511 2 502 35 -10 31 -152 673 -283 1275 -27
121 -85 396 -130 610 -107 514 -103 508 -157 248z"/>
<path d="M4090 5067 c-222 -47 -305 -90 -317 -164 -19 -113 -15 -1783 4 -1783
231 0 816 418 1057 756 349 487 285 1035 -136 1171 -97 31 -494 44 -608 20z"/>
<path d="M4070 2946 c-22 -5 -102 -28 -178 -51 l-138 -42 11 -868 c6 -478 17
-873 23 -880 7 -7 82 3 167 21 1041 223 1565 1511 729 1793 -118 39 -487 56
-614 27z"/>
</g>
</svg>
