<svg version="1.1" id="Layer_1" xmlns="http://www.w3.org/2000/svg" xmlns:xlink="http://www.w3.org/1999/xlink" x="0px" y="0px"
	 width="100%" viewBox="0 0 107 88" enable-background="new 0 0 107 88" xml:space="preserve">
<path fill="#DAF901" opacity="1.000000" stroke="none" 
	d="
M71.000000,89.000000 
	C47.333336,89.000000 24.166676,89.000000 1.000009,89.000000 
	C1.000006,59.666676 1.000006,30.333353 1.000003,1.000021 
	C36.666653,1.000014 72.333305,1.000014 107.999969,1.000007 
	C107.999977,30.333313 107.999977,59.666626 107.999985,88.999969 
	C95.833336,89.000000 83.666664,89.000000 71.000000,89.000000 
M59.065666,84.577370 
	C66.207977,84.646721 73.378181,85.148178 80.486382,84.689178 
	C92.661278,83.903030 102.251617,74.350639 102.081131,62.140945 
	C101.993629,55.873661 99.142281,49.644966 97.323204,42.553886 
	C110.905357,28.241539 99.491386,8.480647 85.054619,6.637551 
	C76.460518,5.540369 67.611931,6.436512 58.447014,6.436512 
	C58.447014,32.401852 58.447014,58.153042 59.065666,84.577370 
M40.511013,22.972057 
	C39.530437,17.443493 38.549858,11.914927 37.550240,6.279006 
	C31.578156,6.279006 25.992352,6.279006 20.177347,6.279006 
	C15.486431,32.304401 10.837994,58.094124 6.137270,84.173935 
	C10.994627,84.173935 15.226395,84.173935 19.473011,84.173935 
	C20.094236,81.285088 20.640779,78.743530 21.180367,76.234314 
	C26.339029,76.234314 31.117897,76.234314 35.023296,76.234314 
	C38.652809,78.454338 34.610218,84.336197 40.454231,84.516098 
	C43.868664,84.621208 47.288986,84.535255 51.133396,84.535255 
	C47.567867,63.756481 44.140732,43.784210 40.511013,22.972057 
z"/>
<path fill="#4D4E48" opacity="1.000000" stroke="none" 
	d="
M58.756340,84.240799 
	C58.447014,58.153042 58.447014,32.401852 58.447014,6.436512 
	C67.611931,6.436512 76.460518,5.540369 85.054619,6.637551 
	C99.491386,8.480647 110.905357,28.241539 97.323204,42.553886 
	C99.142281,49.644966 101.993629,55.873661 102.081131,62.140945 
	C102.251617,74.350639 92.661278,83.903030 80.486382,84.689178 
	C73.378181,85.148178 66.207977,84.646721 58.756340,84.240799 
M73.650589,50.849510 
	C73.124680,51.368469 72.150635,51.879543 72.141350,52.407585 
	C72.034073,58.506451 72.072868,64.607887 72.072868,70.972778 
	C74.782341,70.972778 76.934982,71.088821 79.071075,70.950089 
	C84.542839,70.594704 88.807877,66.118904 88.834076,60.839546 
	C88.860611,55.492218 84.697289,51.198685 79.079636,50.841858 
	C77.585625,50.746960 76.081596,50.809872 73.650589,50.849510 
M78.340965,37.000801 
	C82.871353,37.359653 87.132736,36.179653 88.370689,31.605946 
	C89.118713,28.842319 88.542557,24.772600 86.893166,22.500994 
	C83.228004,17.453169 77.491684,19.302250 72.287582,19.427391 
	C72.287582,25.465626 72.287582,31.022598 72.287582,37.000946 
	C74.189415,37.000946 75.809357,37.000946 78.340965,37.000801 
z"/>
<path fill="#4D4D49" opacity="1.000000" stroke="none" 
	d="
M40.612305,23.391998 
	C44.140732,43.784210 47.567867,63.756481 51.133396,84.535255 
	C47.288986,84.535255 43.868664,84.621208 40.454231,84.516098 
	C34.610218,84.336197 38.652809,78.454338 35.023296,76.234314 
	C31.117897,76.234314 26.339029,76.234314 21.180367,76.234314 
	C20.640779,78.743530 20.094236,81.285088 19.473011,84.173935 
	C15.226395,84.173935 10.994627,84.173935 6.137270,84.173935 
	C10.837994,58.094124 15.486431,32.304401 20.177347,6.279006 
	C25.992352,6.279006 31.578156,6.279006 37.550240,6.279006 
	C38.549858,11.914927 39.530437,17.443493 40.612305,23.391998 
M25.147467,63.927666 
	C27.944315,63.927666 30.741165,63.927666 34.128914,63.927666 
	C32.508907,53.411751 30.976725,43.465919 29.444542,33.520088 
	C28.963667,33.567249 28.482790,33.614407 28.001915,33.661564 
	C26.501896,43.186115 24.986942,52.708405 23.546103,62.241901 
	C23.474285,62.717098 24.046015,63.289555 25.147467,63.927666 
z"/>
<path fill="#D9F801" opacity="1.000000" stroke="none" 
	d="
M74.116379,50.824917 
	C76.081596,50.809872 77.585625,50.746960 79.079636,50.841858 
	C84.697289,51.198685 88.860611,55.492218 88.834076,60.839546 
	C88.807877,66.118904 84.542839,70.594704 79.071075,70.950089 
	C76.934982,71.088821 74.782341,70.972778 72.072868,70.972778 
	C72.072868,64.607887 72.034073,58.506451 72.141350,52.407585 
	C72.150635,51.879543 73.124680,51.368469 74.116379,50.824917 
z"/>
<path fill="#D8F702" opacity="1.000000" stroke="none" 
	d="
M77.885132,37.000874 
	C75.809357,37.000946 74.189415,37.000946 72.287582,37.000946 
	C72.287582,31.022598 72.287582,25.465626 72.287582,19.427391 
	C77.491684,19.302250 83.228004,17.453169 86.893166,22.500994 
	C88.542557,24.772600 89.118713,28.842319 88.370689,31.605946 
	C87.132736,36.179653 82.871353,37.359653 77.885132,37.000874 
z"/>
<path fill="#D4F204" opacity="1.000000" stroke="none" 
	d="
M24.732780,63.872196 
	C24.046015,63.289555 23.474285,62.717098 23.546103,62.241901 
	C24.986942,52.708405 26.501896,43.186115 28.001915,33.661564 
	C28.482790,33.614407 28.963667,33.567249 29.444542,33.520088 
	C30.976725,43.465919 32.508907,53.411751 34.128914,63.927666 
	C30.741165,63.927666 27.944315,63.927666 24.732780,63.872196 
z"/>
</svg>